<svg width="200" height="200" viewBox="0 0 200 200" fill="none" xmlns="http://www.w3.org/2000/svg">
<rect x="0.5" y="0.5" width="199" height="199" rx="99.5" fill="white" stroke="#8089AC"/>
<path d="M111.427 84.8101C103.047 84.8601 94.5371 84.4701 86.5771 82.2601C78.6171 80.0501 71.5771 75.8801 65.1771 71.0101C60.9871 67.8401 57.1771 65.3201 51.7371 65.7001C46.4181 65.9797 41.3305 67.9642 37.2271 71.3601C30.3071 77.4201 31.3571 88.6201 34.1171 96.5001C38.2771 108.37 50.9371 116.61 61.6871 121.98C74.1171 128.19 87.7671 131.8 101.457 133.87C113.457 135.69 128.867 137.02 139.257 129.18C148.807 121.99 151.427 105.55 149.087 94.4501C148.518 91.1716 146.772 88.2134 144.177 86.1301C137.467 81.2301 127.467 84.5001 119.927 84.6701C117.177 84.7301 114.287 84.8001 111.427 84.8101Z" fill="#A0A0A0"/>
<path d="M70.5674 46V50.3" stroke="#66719B" stroke-width="0.85" stroke-linecap="round" stroke-linejoin="round"/>
<path d="M68.417 48.1499H72.717" stroke="#66719B" stroke-width="0.85" stroke-linecap="round" stroke-linejoin="round"/>
<path d="M152.147 131.71V136.01" stroke="#66719B" stroke-width="0.85" stroke-linecap="round" stroke-linejoin="round"/>
<path d="M149.997 133.86H154.297" stroke="#66719B" stroke-width="0.85" stroke-linecap="round" stroke-linejoin="round"/>
<path d="M38.0772 113.14C38.6184 113.14 39.0572 112.701 39.0572 112.16C39.0572 111.619 38.6184 111.18 38.0772 111.18C37.5359 111.18 37.0972 111.619 37.0972 112.16C37.0972 112.701 37.5359 113.14 38.0772 113.14Z" fill="#66719B"/>
<path d="M121.517 50.44C122.058 50.44 122.497 50.0012 122.497 49.46C122.497 48.9187 122.058 48.48 121.517 48.48C120.976 48.48 120.537 48.9187 120.537 49.46C120.537 50.0012 120.976 50.44 121.517 50.44Z" fill="#66719B"/>
<path d="M94.3572 153.31C114.626 153.31 131.057 152.289 131.057 151.03C131.057 149.771 114.626 148.75 94.3572 148.75C74.0884 148.75 57.6572 149.771 57.6572 151.03C57.6572 152.289 74.0884 153.31 94.3572 153.31Z" fill="#A0A0A0"/>
<path d="M66.0873 57.6802H119.387C120.713 57.6802 121.985 58.207 122.923 59.1446C123.861 60.0823 124.387 61.3541 124.387 62.6802V126.09C124.387 127.416 123.861 128.688 122.923 129.626C121.985 130.563 120.713 131.09 119.387 131.09H59.2573C57.9312 131.09 56.6595 130.563 55.7218 129.626C54.7841 128.688 54.2573 127.416 54.2573 126.09V69.6302L66.0873 57.6802Z" fill="white" stroke="#334279" stroke-linecap="round" stroke-linejoin="round"/>
<path d="M54.2573 69.6302H63.9473C64.5158 69.6275 65.0601 69.3998 65.4611 68.9969C65.8622 68.594 66.0873 68.0487 66.0873 67.4802V57.6802L54.2573 69.6302Z" fill="white" stroke="#B3B8CD" stroke-linecap="round" stroke-linejoin="round"/>
<path d="M123.877 74.8101H69.517C67.4018 74.8101 65.687 76.5248 65.687 78.6401V90.2701C65.687 92.3853 67.4018 94.1001 69.517 94.1001H123.877C125.992 94.1001 127.707 92.3853 127.707 90.2701V78.6401C127.707 76.5248 125.992 74.8101 123.877 74.8101Z" fill="white" stroke="#B3B8CD" stroke-linecap="round" stroke-linejoin="round"/>
<path d="M76.2472 87.8201C78.0919 87.8201 79.5872 86.3248 79.5872 84.4801C79.5872 82.6355 78.0919 81.1401 76.2472 81.1401C74.4026 81.1401 72.9072 82.6355 72.9072 84.4801C72.9072 86.3248 74.4026 87.8201 76.2472 87.8201Z" fill="#D2D2D2"/>
<path d="M86.7472 87.8201C88.5919 87.8201 90.0872 86.3248 90.0872 84.4801C90.0872 82.6355 88.5919 81.1401 86.7472 81.1401C84.9026 81.1401 83.4072 82.6355 83.4072 84.4801C83.4072 86.3248 84.9026 87.8201 86.7472 87.8201Z" fill="#D2D2D2"/>
<path d="M97.237 87.8201C99.0816 87.8201 100.577 86.3248 100.577 84.4801C100.577 82.6355 99.0816 81.1401 97.237 81.1401C95.3923 81.1401 93.897 82.6355 93.897 84.4801C93.897 86.3248 95.3923 87.8201 97.237 87.8201Z" fill="#D2D2D2"/>
<path d="M123.877 96.1899H69.517C67.4018 96.1899 65.687 97.9047 65.687 100.02V111.65C65.687 113.765 67.4018 115.48 69.517 115.48H123.877C125.992 115.48 127.707 113.765 127.707 111.65V100.02C127.707 97.9047 125.992 96.1899 123.877 96.1899Z" fill="white" stroke="#B3B8CD" stroke-linecap="round" stroke-linejoin="round"/>
<path d="M76.2472 109.21C78.0919 109.21 79.5872 107.714 79.5872 105.87C79.5872 104.025 78.0919 102.53 76.2472 102.53C74.4026 102.53 72.9072 104.025 72.9072 105.87C72.9072 107.714 74.4026 109.21 76.2472 109.21Z" fill="#D2D2D2"/>
<path d="M86.7472 109.21C88.5919 109.21 90.0872 107.714 90.0872 105.87C90.0872 104.025 88.5919 102.53 86.7472 102.53C84.9026 102.53 83.4072 104.025 83.4072 105.87C83.4072 107.714 84.9026 109.21 86.7472 109.21Z" fill="#D2D2D2"/>
<path d="M97.237 109.21C99.0816 109.21 100.577 107.714 100.577 105.87C100.577 104.025 99.0816 102.53 97.237 102.53C95.3923 102.53 93.897 104.025 93.897 105.87C93.897 107.714 95.3923 109.21 97.237 109.21Z" fill="#D2D2D2"/>
<path d="M123.877 117.58H69.517C67.4018 117.58 65.687 119.295 65.687 121.41V133.04C65.687 135.155 67.4018 136.87 69.517 136.87H123.877C125.992 136.87 127.707 135.155 127.707 133.04V121.41C127.707 119.295 125.992 117.58 123.877 117.58Z" fill="white" stroke="#B3B8CD" stroke-linecap="round" stroke-linejoin="round"/>
<path d="M76.2472 130.59C78.0919 130.59 79.5872 129.095 79.5872 127.25C79.5872 125.406 78.0919 123.91 76.2472 123.91C74.4026 123.91 72.9072 125.406 72.9072 127.25C72.9072 129.095 74.4026 130.59 76.2472 130.59Z" fill="#D2D2D2"/>
<path d="M86.7472 130.59C88.5919 130.59 90.0872 129.095 90.0872 127.25C90.0872 125.406 88.5919 123.91 86.7472 123.91C84.9026 123.91 83.4072 125.406 83.4072 127.25C83.4072 129.095 84.9026 130.59 86.7472 130.59Z" fill="#D2D2D2"/>
<path d="M97.237 130.59C99.0816 130.59 100.577 129.095 100.577 127.25C100.577 125.406 99.0816 123.91 97.237 123.91C95.3923 123.91 93.897 125.406 93.897 127.25C93.897 129.095 95.3923 130.59 97.237 130.59Z" fill="#D2D2D2"/>
<path d="M128.797 99.17C140.246 99.17 149.527 89.8888 149.527 78.44C149.527 66.9911 140.246 57.71 128.797 57.71C117.349 57.71 108.067 66.9911 108.067 78.44C108.067 89.8888 117.349 99.17 128.797 99.17Z" fill="white" stroke="#B3B8CD" stroke-linecap="round" stroke-linejoin="round"/>
<path d="M143.517 93.48L149.037 99" stroke="#B3B8CD" stroke-linecap="round" stroke-linejoin="round"/>
<path d="M148.421 96.3204L146.707 98.1131C145.936 98.9195 145.965 100.198 146.771 100.969L161.662 115.204C162.468 115.975 163.747 115.946 164.518 115.14L166.232 113.347C167.002 112.54 166.974 111.262 166.167 110.491L151.277 96.2561C150.47 95.4852 149.191 95.514 148.421 96.3204Z" fill="white" stroke="#B3B8CD" stroke-linecap="round" stroke-linejoin="round"/>
<path d="M132.927 68.83V67.27C132.927 66.86 132.587 66.52 132.177 66.52C131.767 66.52 131.427 66.86 131.427 67.27V68.77H124.927V67.27C124.927 66.86 124.587 66.52 124.177 66.52C123.767 66.52 123.427 66.86 123.427 67.27V68.83C120.727 69.08 119.417 70.69 119.217 73.08C119.197 73.37 119.437 73.61 119.717 73.61H136.637C136.927 73.61 137.167 73.36 137.137 73.08C136.937 70.69 135.627 69.08 132.927 68.83Z" fill="#001358"/>
<path d="M136.177 75.1099H120.177C119.627 75.1099 119.177 75.5599 119.177 76.1099V82.2699C119.177 85.2699 120.677 87.2699 124.177 87.2699H129.107C129.797 87.2699 130.277 86.5999 130.057 85.9499C129.857 85.3699 129.687 84.7299 129.687 84.2699C129.687 81.2399 132.157 78.7699 135.187 78.7699C135.477 78.7699 135.767 78.7899 136.047 78.8399C136.647 78.9299 137.187 78.4599 137.187 77.8599V76.1199C137.177 75.5599 136.727 75.1099 136.177 75.1099ZM125.387 82.9799C125.287 83.0699 125.177 83.1399 125.057 83.1899C124.937 83.2399 124.807 83.2699 124.677 83.2699C124.547 83.2699 124.417 83.2399 124.297 83.1899C124.177 83.1399 124.067 83.0699 123.967 82.9799C123.787 82.7899 123.677 82.5299 123.677 82.2699C123.677 82.2099 123.687 82.1399 123.697 82.0799C123.707 82.0099 123.727 81.9499 123.757 81.8899C123.777 81.8299 123.807 81.7699 123.847 81.7099C123.877 81.6599 123.927 81.6099 123.967 81.5599C124.067 81.4699 124.177 81.3999 124.297 81.3499C124.537 81.2499 124.817 81.2499 125.057 81.3499C125.177 81.3999 125.287 81.4699 125.387 81.5599C125.427 81.6099 125.477 81.6599 125.507 81.7099C125.547 81.7699 125.577 81.8299 125.597 81.8899C125.627 81.9499 125.647 82.0099 125.657 82.0799C125.667 82.1399 125.677 82.2099 125.677 82.2699C125.677 82.5299 125.567 82.7899 125.387 82.9799ZM125.387 79.4799C125.287 79.5699 125.177 79.6399 125.057 79.6899C124.937 79.7399 124.807 79.7699 124.677 79.7699C124.547 79.7699 124.417 79.7399 124.297 79.6899C124.167 79.6399 124.067 79.5699 123.967 79.4799C123.787 79.2899 123.677 79.0299 123.677 78.7699C123.677 78.5099 123.787 78.2499 123.967 78.0599C124.067 77.9699 124.177 77.8999 124.297 77.8499C124.537 77.7499 124.817 77.7499 125.057 77.8499C125.177 77.8999 125.287 77.9699 125.387 78.0599C125.427 78.1099 125.477 78.1599 125.507 78.2099C125.547 78.2699 125.577 78.3299 125.597 78.3899C125.627 78.4499 125.647 78.5099 125.657 78.5699C125.667 78.6399 125.677 78.7099 125.677 78.7699C125.677 79.0299 125.567 79.2899 125.387 79.4799ZM128.887 79.4799C128.697 79.6599 128.447 79.7699 128.177 79.7699C128.047 79.7699 127.917 79.7399 127.797 79.6899C127.667 79.6399 127.567 79.5699 127.467 79.4799C127.287 79.2899 127.177 79.0299 127.177 78.7699C127.177 78.7099 127.187 78.6399 127.197 78.5699C127.207 78.5099 127.227 78.4499 127.257 78.3899C127.277 78.3299 127.307 78.2699 127.347 78.2099C127.387 78.1599 127.427 78.1099 127.467 78.0599C127.837 77.6899 128.507 77.6899 128.887 78.0599C128.927 78.1099 128.967 78.1599 129.007 78.2099C129.047 78.2699 129.077 78.3299 129.097 78.3899C129.127 78.4499 129.147 78.5099 129.157 78.5699C129.167 78.6399 129.177 78.7099 129.177 78.7699C129.177 79.0299 129.067 79.2899 128.887 79.4799Z" fill="#001358"/>
<path d="M138.007 81.44C136.447 79.88 133.907 79.88 132.347 81.44C130.787 83 130.787 85.54 132.347 87.1C133.907 88.66 136.447 88.66 138.007 87.1C139.567 85.54 139.567 83 138.007 81.44ZM137.247 84.83C137.117 84.97 136.927 85.05 136.717 85.05H135.977V85.83C135.977 86.04 135.897 86.22 135.757 86.36C135.617 86.5 135.437 86.58 135.227 86.58C134.817 86.58 134.477 86.24 134.477 85.83V85.05H133.727C133.317 85.05 132.977 84.72 132.977 84.3C132.977 83.89 133.317 83.55 133.727 83.55H134.477V82.84C134.477 82.43 134.807 82.09 135.227 82.09C135.637 82.09 135.977 82.43 135.977 82.84V83.55H136.717C137.137 83.55 137.467 83.89 137.467 84.3C137.467 84.51 137.387 84.7 137.247 84.83Z" fill="#001358"/>
</svg>
