<svg width="25" height="24" viewBox="0 0 25 24" fill="none" xmlns="http://www.w3.org/2000/svg">
<mask id="path-1-inside-1_1019_2515" fill="white">
<path fill-rule="evenodd" clip-rule="evenodd" d="M12.4874 21.1777C13.0453 21.1777 13.4973 21.5273 13.4973 21.959C13.4973 22.3906 13.0453 22.7402 12.4874 22.7402C11.9294 22.7402 11.4775 22.3906 11.4775 21.959C11.4775 21.5273 11.9294 21.1777 12.4874 21.1777ZM5.9635 13.1797C5.94835 13.1563 5.93068 13.1348 5.91048 13.1133C5.82211 13.002 5.73375 12.8906 5.64538 12.7637C5.55702 12.627 5.46865 12.498 5.39039 12.3789C5.31212 12.25 5.23638 12.1133 5.17073 11.9766C5.11519 11.8574 5.04955 11.7207 4.98391 11.5586C4.88544 11.3281 4.60772 11.1836 4.3098 11.1836H2.39859C2.33295 11.1836 2.26731 11.1758 2.22186 11.1582C2.17894 11.1406 2.1234 11.1152 2.09057 11.082C2.04765 11.0469 2.01231 11.0137 1.99211 10.9805C1.96939 10.9473 1.95929 10.8945 1.95929 10.8438V8.98047C1.95929 8.92969 1.96939 8.88672 1.98201 8.85156C2.00473 8.81641 2.03756 8.77539 2.0931 8.73242C2.13602 8.69922 2.18146 8.67188 2.22438 8.66406C2.26983 8.64648 2.33547 8.63867 2.40112 8.63867H4.1558C4.50926 8.63867 4.79708 8.44141 4.86272 8.18555C4.90564 8.04102 4.95108 7.9043 4.994 7.7832C5.04955 7.64648 5.10509 7.51758 5.17073 7.38086C5.23638 7.25195 5.30202 7.11523 5.39039 6.98828C5.46865 6.85156 5.55702 6.73242 5.63276 6.61328C5.78677 6.39062 5.73122 6.13477 5.51157 5.96484L4.14317 4.89648C4.13307 4.88867 4.13307 4.88867 4.12045 4.88867C4.07753 4.85547 4.04218 4.82031 4.02199 4.78711C3.99926 4.75391 3.99926 4.71875 3.99926 4.66797C3.99926 4.61719 4.00936 4.57422 4.03209 4.53906C4.05481 4.49609 4.08763 4.46289 4.14317 4.41992L5.83221 3.12109C5.88776 3.07812 5.93068 3.05273 5.98622 3.03516C6.03166 3.01758 6.08468 3.00977 6.15285 3.00977C6.21849 3.00977 6.27404 3.01758 6.31948 3.03516C6.36493 3.05273 6.41795 3.07812 6.46339 3.11133H6.47349L7.7207 4.07617C7.96308 4.26367 8.34936 4.28906 8.62708 4.13672C8.77099 4.06836 8.9149 4 9.079 3.93164C9.25573 3.86328 9.42237 3.79492 9.57637 3.73438C9.743 3.67383 9.91973 3.61523 10.0965 3.56445C10.2505 3.52148 10.4272 3.4707 10.6368 3.41992C10.9347 3.34375 11.1215 3.12891 11.1215 2.89844V1.41797C11.1215 1.36719 11.1316 1.31641 11.1543 1.28125C11.177 1.24805 11.2099 1.21289 11.2427 1.17969C11.2881 1.14648 11.3311 1.11914 11.374 1.11133C11.4169 1.09375 11.4851 1.08594 11.5507 1.08594H13.2473H13.2675H13.4417C13.5074 1.08594 13.573 1.09375 13.6185 1.11133C13.6614 1.11914 13.7068 1.14648 13.7497 1.17969C13.7826 1.21289 13.8154 1.24805 13.8381 1.28125C13.8608 1.31445 13.8709 1.36719 13.8709 1.41797V2.89648C13.8709 3.12695 14.0578 3.33984 14.3557 3.41797C14.5652 3.46875 14.742 3.51953 14.896 3.5625C15.0727 3.61328 15.2494 3.67383 15.4161 3.73242C15.5701 3.79297 15.7367 3.86133 15.9134 3.92969C16.0801 3.99805 16.2214 4.06641 16.3653 4.13477C16.6405 4.28906 17.0268 4.26367 17.2717 4.07422L18.5189 3.10938H18.529C18.572 3.07617 18.6275 3.04883 18.6729 3.0332C18.7159 3.01562 18.7714 3.00781 18.8396 3.00781C18.9052 3.00781 18.9608 3.01562 19.0062 3.0332C19.0618 3.05078 19.1047 3.07617 19.1602 3.11914L20.8493 4.41797C20.9048 4.46094 20.9376 4.49414 20.9603 4.53711C20.9831 4.57031 20.9932 4.61328 20.9932 4.66602C20.9932 4.7168 20.9932 4.75195 20.9704 4.78516C20.9477 4.82031 20.9149 4.85352 20.872 4.88672C20.8619 4.88672 20.8619 4.88672 20.8493 4.89453L19.4809 5.96289C19.2612 6.13281 19.2057 6.39062 19.3597 6.61133C19.4379 6.73047 19.5263 6.84961 19.602 6.98633C19.6904 7.11523 19.7561 7.25195 19.8217 7.37891C19.8873 7.51562 19.9429 7.64453 19.9984 7.78125C20.0413 7.90039 20.0868 8.03711 20.1297 8.18359C20.1954 8.43945 20.4832 8.63672 20.8366 8.63672H22.5913C22.657 8.63672 22.7226 8.64453 22.768 8.66211C22.811 8.66992 22.8564 8.69531 22.8993 8.73047C22.9549 8.77344 22.9877 8.81641 23.0104 8.84961C23.0205 8.88281 23.0331 8.92578 23.0331 8.97852V10.8418C23.0331 10.8926 23.023 10.9434 23.0003 10.9785C22.9776 11.0137 22.9448 11.0469 22.9019 11.0801C22.869 11.1133 22.8135 11.1406 22.7706 11.1562C22.7251 11.1738 22.6595 11.1816 22.5938 11.1816H20.6826C20.3847 11.1816 20.1095 11.3262 20.0085 11.5566C19.9429 11.7188 19.8772 11.8555 19.8217 11.9746C19.7561 12.1113 19.6778 12.248 19.602 12.377C19.5238 12.4961 19.4354 12.625 19.347 12.7617C19.2587 12.8906 19.1703 13.002 19.0819 13.1113C19.0618 13.1328 19.0441 13.1543 19.0289 13.1777H20.7003C20.771 13.0684 20.8417 12.9512 20.9149 12.8301C21.0033 12.6758 21.0916 12.5234 21.1699 12.3691C21.18 12.3438 21.2027 12.3086 21.2153 12.2832H22.6292C22.8842 12.2832 23.1266 12.25 23.3462 12.1816C23.5659 12.1133 23.7779 12.002 23.9547 11.8652C24.1314 11.7285 24.2753 11.5742 24.3637 11.3945C24.452 11.2148 24.495 11.0352 24.495 10.8398V8.97852C24.495 8.79102 24.4394 8.60352 24.351 8.43164C24.2627 8.26172 24.1314 8.10742 23.9547 7.9707L23.9446 7.96289C23.7678 7.82617 23.5684 7.71484 23.3487 7.64648C23.1291 7.57031 22.8842 7.53516 22.6317 7.53516H21.4274C21.4274 7.50977 21.4173 7.49219 21.4047 7.4668C21.3391 7.30469 21.2734 7.14258 21.1951 6.98828C21.1068 6.82617 21.0285 6.67187 20.9401 6.52734C20.93 6.50977 20.9073 6.48438 20.8972 6.45898L21.892 5.68164C22.0788 5.55273 22.2126 5.40039 22.3111 5.22852C22.3994 5.05859 22.455 4.86914 22.455 4.67383C22.455 4.47656 22.4121 4.29883 22.3111 4.11914C22.2126 3.94922 22.0788 3.79492 21.9021 3.6582H21.892L20.2029 2.35938C20.0262 2.22266 19.8267 2.12109 19.5945 2.04297C19.3622 1.9668 19.1299 1.93164 18.8774 1.93164C18.6351 1.93164 18.3927 1.96484 18.1604 2.04297C17.9282 2.11133 17.7287 2.22266 17.552 2.35938L16.691 3.01758L16.6254 2.99219C16.4487 2.91602 16.2492 2.84766 16.0397 2.76953C15.8402 2.70117 15.6433 2.63281 15.4438 2.57227C15.411 2.56445 15.3656 2.54688 15.3327 2.53711V1.44336C15.3327 1.24609 15.2898 1.05859 15.2015 0.888672C15.1131 0.716797 14.9692 0.554688 14.7924 0.417969C14.6056 0.28125 14.4062 0.169922 14.184 0.101562C13.9542 0.0332031 13.722 0 13.467 0H12.5959H12.4015H11.5305C11.2755 0 11.0458 0.0332031 10.8135 0.101562C10.5938 0.169922 10.3944 0.28125 10.205 0.417969C10.0283 0.554688 9.88439 0.716797 9.79602 0.888672C9.70766 1.05859 9.66474 1.24805 9.66474 1.44336V2.53711C9.63192 2.54492 9.58647 2.5625 9.55365 2.57227C9.3542 2.63281 9.15727 2.70117 8.95782 2.76953C8.74826 2.8457 8.54881 2.91406 8.37208 2.99219L8.30644 3.01758L7.44551 2.35938C7.26878 2.22266 7.06932 2.11133 6.83705 2.04297C6.60478 1.9668 6.3624 1.93164 6.12003 1.93164C5.86503 1.93164 5.63528 1.96484 5.40301 2.04297C5.17073 2.11914 4.97128 2.22266 4.79455 2.35938L3.10551 3.6582H3.09541C2.91868 3.79492 2.7874 3.94922 2.68641 4.11914C2.58794 4.29688 2.5425 4.47656 2.5425 4.67188C2.5425 4.86914 2.59804 5.05664 2.68641 5.22656C2.78487 5.39648 2.91868 5.55078 3.10551 5.67969L4.10025 6.45703C4.09015 6.48242 4.06743 6.50781 4.05733 6.52539C3.96897 6.66992 3.8907 6.82422 3.80234 6.98633C3.72407 7.14062 3.65843 7.30273 3.59278 7.46484C3.58268 7.49023 3.57006 7.50781 3.57006 7.5332H2.36577C2.11077 7.5332 1.8684 7.56836 1.64875 7.64453C1.4291 7.71289 1.22964 7.82422 1.05291 7.96094L1.04282 7.96875C0.866085 8.10547 0.734799 8.25977 0.646434 8.42969C0.555544 8.60156 0.5 8.79102 0.5 8.97852V10.8398C0.5 11.0371 0.54292 11.2148 0.631286 11.3945C0.719651 11.5742 0.86356 11.7285 1.04029 11.8652C1.21702 12.002 1.42657 12.1133 1.64875 12.1816C1.8684 12.25 2.1133 12.2832 2.36577 12.2832H3.77961C3.78971 12.3086 3.81243 12.3438 3.82506 12.3691C3.90332 12.5234 3.99169 12.6758 4.08005 12.8301C4.1558 12.9531 4.22396 13.0703 4.29466 13.1777H5.9635V13.1797ZM8.69777 11.4512C8.48822 11.457 8.32664 11.4902 8.21807 11.5488C8.15495 11.582 8.10951 11.623 8.08174 11.6719C8.04892 11.7266 8.03377 11.793 8.03629 11.8691C8.04387 12.0918 8.19535 12.3848 8.48822 12.7227L8.49327 12.7266L9.44256 13.8965C9.8238 14.3652 10.2227 14.8438 10.7201 15.1934C11.1972 15.5312 11.7754 15.7598 12.5429 15.7617C13.371 15.7637 13.9795 15.5254 14.4718 15.1699C14.9843 14.7988 15.3883 14.291 15.7847 13.7832L16.8551 12.4199C17.0546 12.0684 17.1278 11.832 17.0824 11.6934C17.0546 11.6113 16.9385 11.5703 16.7365 11.5625C16.6936 11.5605 16.6506 11.5605 16.6052 11.5605C16.5572 11.5625 16.5067 11.5645 16.4562 11.5684C16.4285 11.5703 16.4007 11.5684 16.3729 11.5645C16.277 11.5684 16.1785 11.5625 16.0801 11.5527L16.4461 10.2969C13.727 10.6289 11.6921 9.06641 8.81643 9.98438L9.02346 11.4629C8.90985 11.4648 8.79876 11.4629 8.69777 11.4512ZM17.1026 11.1875C17.3651 11.25 17.5343 11.3789 17.605 11.5879C17.6807 11.8203 17.5974 12.1465 17.3449 12.5918C17.3399 12.5996 17.3348 12.6074 17.3298 12.6152L16.2467 13.9941C15.8301 14.5254 15.406 15.0586 14.8404 15.4687L14.8126 15.4883C14.8657 15.5488 14.9263 15.6152 14.9869 15.6855C15.1737 15.8984 15.3883 16.1426 15.5877 16.332C16.7643 16.8984 19.3521 17.0508 20.3645 17.4863C22.9397 18.5977 22.0005 21.2969 22.1874 23.2383C22.1318 23.6973 21.796 23.9609 21.1345 24H20.4201L21.2052 19.3965C21.2658 19.0371 20.9376 18.7441 20.5311 18.7441H15.0096C15.1459 17.9922 15.2444 17.2734 15.2923 16.7305C15.0348 16.5098 14.7596 16.1973 14.5223 15.9277C14.4693 15.8691 14.4188 15.8105 14.3708 15.7578C13.8734 16.0156 13.2827 16.1758 12.5429 16.1738C11.7173 16.1719 11.0735 15.9531 10.5408 15.6191C10.3919 15.9648 10.1722 16.4414 9.96013 16.6699C9.94246 16.6895 9.91973 16.707 9.89449 16.7207C9.98538 17.2812 10.1116 18 10.2606 18.7461H4.6052C4.20124 18.7461 3.8705 19.0391 3.9311 19.3984L4.71628 24.002H3.99926C3.33779 23.9629 3.002 23.6992 2.94645 23.2402C2.97928 21.1836 1.96939 18.6953 4.7693 17.4883C5.79434 17.0449 8.43772 16.8945 9.59152 16.3105C9.76825 16.0547 9.96266 15.5938 10.0813 15.3203C10.0939 15.2891 10.0737 15.3398 10.0939 15.2949C9.66979 14.9434 9.3239 14.5273 8.99064 14.1172L8.04134 12.9492C7.69293 12.5488 7.51368 12.1816 7.50105 11.8809C7.496 11.7402 7.5263 11.6113 7.59447 11.498C7.66516 11.3809 7.77372 11.2812 7.92016 11.2051C7.98832 11.1699 8.06659 11.1387 8.14991 11.1133C8.08931 10.4785 8.06407 9.67969 8.10446 9.01172C8.12466 8.85352 8.16505 8.69336 8.2206 8.53516C8.56901 7.57422 9.63697 6.88086 10.8564 6.55469C11.4472 6.39648 11.22 6.01953 11.8183 6.04492C13.2372 6.10547 15.4236 6.8125 16.2644 7.5625C17.4459 8.61133 17.1404 9.9043 17.1026 11.1875ZM10.609 17.6152C10.1293 17.1934 10.0889 16.752 10.609 16.2852C11.2099 16.4023 11.7603 16.6035 12.2677 16.875C12.3763 16.8379 12.505 16.8223 12.6288 16.8301C13.1564 16.541 13.828 16.4238 14.4163 16.207C15.1181 16.7363 15.0424 17.2227 14.3531 17.6738C13.9669 17.6055 13.6008 17.5 13.2498 17.3613C13.2397 17.4316 13.217 17.5078 13.1741 17.5898L13.3534 18.7441H11.9218L12.1011 17.5898C11.99 17.4434 11.9471 17.3184 11.9496 17.2148C11.533 17.4082 11.0811 17.5332 10.609 17.6152Z"/>
</mask>
<path fill-rule="evenodd" clip-rule="evenodd" d="M12.4874 21.1777C13.0453 21.1777 13.4973 21.5273 13.4973 21.959C13.4973 22.3906 13.0453 22.7402 12.4874 22.7402C11.9294 22.7402 11.4775 22.3906 11.4775 21.959C11.4775 21.5273 11.9294 21.1777 12.4874 21.1777ZM5.9635 13.1797C5.94835 13.1563 5.93068 13.1348 5.91048 13.1133C5.82211 13.002 5.73375 12.8906 5.64538 12.7637C5.55702 12.627 5.46865 12.498 5.39039 12.3789C5.31212 12.25 5.23638 12.1133 5.17073 11.9766C5.11519 11.8574 5.04955 11.7207 4.98391 11.5586C4.88544 11.3281 4.60772 11.1836 4.3098 11.1836H2.39859C2.33295 11.1836 2.26731 11.1758 2.22186 11.1582C2.17894 11.1406 2.1234 11.1152 2.09057 11.082C2.04765 11.0469 2.01231 11.0137 1.99211 10.9805C1.96939 10.9473 1.95929 10.8945 1.95929 10.8438V8.98047C1.95929 8.92969 1.96939 8.88672 1.98201 8.85156C2.00473 8.81641 2.03756 8.77539 2.0931 8.73242C2.13602 8.69922 2.18146 8.67188 2.22438 8.66406C2.26983 8.64648 2.33547 8.63867 2.40112 8.63867H4.1558C4.50926 8.63867 4.79708 8.44141 4.86272 8.18555C4.90564 8.04102 4.95108 7.9043 4.994 7.7832C5.04955 7.64648 5.10509 7.51758 5.17073 7.38086C5.23638 7.25195 5.30202 7.11523 5.39039 6.98828C5.46865 6.85156 5.55702 6.73242 5.63276 6.61328C5.78677 6.39062 5.73122 6.13477 5.51157 5.96484L4.14317 4.89648C4.13307 4.88867 4.13307 4.88867 4.12045 4.88867C4.07753 4.85547 4.04218 4.82031 4.02199 4.78711C3.99926 4.75391 3.99926 4.71875 3.99926 4.66797C3.99926 4.61719 4.00936 4.57422 4.03209 4.53906C4.05481 4.49609 4.08763 4.46289 4.14317 4.41992L5.83221 3.12109C5.88776 3.07812 5.93068 3.05273 5.98622 3.03516C6.03166 3.01758 6.08468 3.00977 6.15285 3.00977C6.21849 3.00977 6.27404 3.01758 6.31948 3.03516C6.36493 3.05273 6.41795 3.07812 6.46339 3.11133H6.47349L7.7207 4.07617C7.96308 4.26367 8.34936 4.28906 8.62708 4.13672C8.77099 4.06836 8.9149 4 9.079 3.93164C9.25573 3.86328 9.42237 3.79492 9.57637 3.73438C9.743 3.67383 9.91973 3.61523 10.0965 3.56445C10.2505 3.52148 10.4272 3.4707 10.6368 3.41992C10.9347 3.34375 11.1215 3.12891 11.1215 2.89844V1.41797C11.1215 1.36719 11.1316 1.31641 11.1543 1.28125C11.177 1.24805 11.2099 1.21289 11.2427 1.17969C11.2881 1.14648 11.3311 1.11914 11.374 1.11133C11.4169 1.09375 11.4851 1.08594 11.5507 1.08594H13.2473H13.2675H13.4417C13.5074 1.08594 13.573 1.09375 13.6185 1.11133C13.6614 1.11914 13.7068 1.14648 13.7497 1.17969C13.7826 1.21289 13.8154 1.24805 13.8381 1.28125C13.8608 1.31445 13.8709 1.36719 13.8709 1.41797V2.89648C13.8709 3.12695 14.0578 3.33984 14.3557 3.41797C14.5652 3.46875 14.742 3.51953 14.896 3.5625C15.0727 3.61328 15.2494 3.67383 15.4161 3.73242C15.5701 3.79297 15.7367 3.86133 15.9134 3.92969C16.0801 3.99805 16.2214 4.06641 16.3653 4.13477C16.6405 4.28906 17.0268 4.26367 17.2717 4.07422L18.5189 3.10938H18.529C18.572 3.07617 18.6275 3.04883 18.6729 3.0332C18.7159 3.01562 18.7714 3.00781 18.8396 3.00781C18.9052 3.00781 18.9608 3.01562 19.0062 3.0332C19.0618 3.05078 19.1047 3.07617 19.1602 3.11914L20.8493 4.41797C20.9048 4.46094 20.9376 4.49414 20.9603 4.53711C20.9831 4.57031 20.9932 4.61328 20.9932 4.66602C20.9932 4.7168 20.9932 4.75195 20.9704 4.78516C20.9477 4.82031 20.9149 4.85352 20.872 4.88672C20.8619 4.88672 20.8619 4.88672 20.8493 4.89453L19.4809 5.96289C19.2612 6.13281 19.2057 6.39062 19.3597 6.61133C19.4379 6.73047 19.5263 6.84961 19.602 6.98633C19.6904 7.11523 19.7561 7.25195 19.8217 7.37891C19.8873 7.51562 19.9429 7.64453 19.9984 7.78125C20.0413 7.90039 20.0868 8.03711 20.1297 8.18359C20.1954 8.43945 20.4832 8.63672 20.8366 8.63672H22.5913C22.657 8.63672 22.7226 8.64453 22.768 8.66211C22.811 8.66992 22.8564 8.69531 22.8993 8.73047C22.9549 8.77344 22.9877 8.81641 23.0104 8.84961C23.0205 8.88281 23.0331 8.92578 23.0331 8.97852V10.8418C23.0331 10.8926 23.023 10.9434 23.0003 10.9785C22.9776 11.0137 22.9448 11.0469 22.9019 11.0801C22.869 11.1133 22.8135 11.1406 22.7706 11.1562C22.7251 11.1738 22.6595 11.1816 22.5938 11.1816H20.6826C20.3847 11.1816 20.1095 11.3262 20.0085 11.5566C19.9429 11.7188 19.8772 11.8555 19.8217 11.9746C19.7561 12.1113 19.6778 12.248 19.602 12.377C19.5238 12.4961 19.4354 12.625 19.347 12.7617C19.2587 12.8906 19.1703 13.002 19.0819 13.1113C19.0618 13.1328 19.0441 13.1543 19.0289 13.1777H20.7003C20.771 13.0684 20.8417 12.9512 20.9149 12.8301C21.0033 12.6758 21.0916 12.5234 21.1699 12.3691C21.18 12.3438 21.2027 12.3086 21.2153 12.2832H22.6292C22.8842 12.2832 23.1266 12.25 23.3462 12.1816C23.5659 12.1133 23.7779 12.002 23.9547 11.8652C24.1314 11.7285 24.2753 11.5742 24.3637 11.3945C24.452 11.2148 24.495 11.0352 24.495 10.8398V8.97852C24.495 8.79102 24.4394 8.60352 24.351 8.43164C24.2627 8.26172 24.1314 8.10742 23.9547 7.9707L23.9446 7.96289C23.7678 7.82617 23.5684 7.71484 23.3487 7.64648C23.1291 7.57031 22.8842 7.53516 22.6317 7.53516H21.4274C21.4274 7.50977 21.4173 7.49219 21.4047 7.4668C21.3391 7.30469 21.2734 7.14258 21.1951 6.98828C21.1068 6.82617 21.0285 6.67187 20.9401 6.52734C20.93 6.50977 20.9073 6.48438 20.8972 6.45898L21.892 5.68164C22.0788 5.55273 22.2126 5.40039 22.3111 5.22852C22.3994 5.05859 22.455 4.86914 22.455 4.67383C22.455 4.47656 22.4121 4.29883 22.3111 4.11914C22.2126 3.94922 22.0788 3.79492 21.9021 3.6582H21.892L20.2029 2.35938C20.0262 2.22266 19.8267 2.12109 19.5945 2.04297C19.3622 1.9668 19.1299 1.93164 18.8774 1.93164C18.6351 1.93164 18.3927 1.96484 18.1604 2.04297C17.9282 2.11133 17.7287 2.22266 17.552 2.35938L16.691 3.01758L16.6254 2.99219C16.4487 2.91602 16.2492 2.84766 16.0397 2.76953C15.8402 2.70117 15.6433 2.63281 15.4438 2.57227C15.411 2.56445 15.3656 2.54688 15.3327 2.53711V1.44336C15.3327 1.24609 15.2898 1.05859 15.2015 0.888672C15.1131 0.716797 14.9692 0.554688 14.7924 0.417969C14.6056 0.28125 14.4062 0.169922 14.184 0.101562C13.9542 0.0332031 13.722 0 13.467 0H12.5959H12.4015H11.5305C11.2755 0 11.0458 0.0332031 10.8135 0.101562C10.5938 0.169922 10.3944 0.28125 10.205 0.417969C10.0283 0.554688 9.88439 0.716797 9.79602 0.888672C9.70766 1.05859 9.66474 1.24805 9.66474 1.44336V2.53711C9.63192 2.54492 9.58647 2.5625 9.55365 2.57227C9.3542 2.63281 9.15727 2.70117 8.95782 2.76953C8.74826 2.8457 8.54881 2.91406 8.37208 2.99219L8.30644 3.01758L7.44551 2.35938C7.26878 2.22266 7.06932 2.11133 6.83705 2.04297C6.60478 1.9668 6.3624 1.93164 6.12003 1.93164C5.86503 1.93164 5.63528 1.96484 5.40301 2.04297C5.17073 2.11914 4.97128 2.22266 4.79455 2.35938L3.10551 3.6582H3.09541C2.91868 3.79492 2.7874 3.94922 2.68641 4.11914C2.58794 4.29688 2.5425 4.47656 2.5425 4.67188C2.5425 4.86914 2.59804 5.05664 2.68641 5.22656C2.78487 5.39648 2.91868 5.55078 3.10551 5.67969L4.10025 6.45703C4.09015 6.48242 4.06743 6.50781 4.05733 6.52539C3.96897 6.66992 3.8907 6.82422 3.80234 6.98633C3.72407 7.14062 3.65843 7.30273 3.59278 7.46484C3.58268 7.49023 3.57006 7.50781 3.57006 7.5332H2.36577C2.11077 7.5332 1.8684 7.56836 1.64875 7.64453C1.4291 7.71289 1.22964 7.82422 1.05291 7.96094L1.04282 7.96875C0.866085 8.10547 0.734799 8.25977 0.646434 8.42969C0.555544 8.60156 0.5 8.79102 0.5 8.97852V10.8398C0.5 11.0371 0.54292 11.2148 0.631286 11.3945C0.719651 11.5742 0.86356 11.7285 1.04029 11.8652C1.21702 12.002 1.42657 12.1133 1.64875 12.1816C1.8684 12.25 2.1133 12.2832 2.36577 12.2832H3.77961C3.78971 12.3086 3.81243 12.3438 3.82506 12.3691C3.90332 12.5234 3.99169 12.6758 4.08005 12.8301C4.1558 12.9531 4.22396 13.0703 4.29466 13.1777H5.9635V13.1797ZM8.69777 11.4512C8.48822 11.457 8.32664 11.4902 8.21807 11.5488C8.15495 11.582 8.10951 11.623 8.08174 11.6719C8.04892 11.7266 8.03377 11.793 8.03629 11.8691C8.04387 12.0918 8.19535 12.3848 8.48822 12.7227L8.49327 12.7266L9.44256 13.8965C9.8238 14.3652 10.2227 14.8438 10.7201 15.1934C11.1972 15.5312 11.7754 15.7598 12.5429 15.7617C13.371 15.7637 13.9795 15.5254 14.4718 15.1699C14.9843 14.7988 15.3883 14.291 15.7847 13.7832L16.8551 12.4199C17.0546 12.0684 17.1278 11.832 17.0824 11.6934C17.0546 11.6113 16.9385 11.5703 16.7365 11.5625C16.6936 11.5605 16.6506 11.5605 16.6052 11.5605C16.5572 11.5625 16.5067 11.5645 16.4562 11.5684C16.4285 11.5703 16.4007 11.5684 16.3729 11.5645C16.277 11.5684 16.1785 11.5625 16.0801 11.5527L16.4461 10.2969C13.727 10.6289 11.6921 9.06641 8.81643 9.98438L9.02346 11.4629C8.90985 11.4648 8.79876 11.4629 8.69777 11.4512ZM17.1026 11.1875C17.3651 11.25 17.5343 11.3789 17.605 11.5879C17.6807 11.8203 17.5974 12.1465 17.3449 12.5918C17.3399 12.5996 17.3348 12.6074 17.3298 12.6152L16.2467 13.9941C15.8301 14.5254 15.406 15.0586 14.8404 15.4687L14.8126 15.4883C14.8657 15.5488 14.9263 15.6152 14.9869 15.6855C15.1737 15.8984 15.3883 16.1426 15.5877 16.332C16.7643 16.8984 19.3521 17.0508 20.3645 17.4863C22.9397 18.5977 22.0005 21.2969 22.1874 23.2383C22.1318 23.6973 21.796 23.9609 21.1345 24H20.4201L21.2052 19.3965C21.2658 19.0371 20.9376 18.7441 20.5311 18.7441H15.0096C15.1459 17.9922 15.2444 17.2734 15.2923 16.7305C15.0348 16.5098 14.7596 16.1973 14.5223 15.9277C14.4693 15.8691 14.4188 15.8105 14.3708 15.7578C13.8734 16.0156 13.2827 16.1758 12.5429 16.1738C11.7173 16.1719 11.0735 15.9531 10.5408 15.6191C10.3919 15.9648 10.1722 16.4414 9.96013 16.6699C9.94246 16.6895 9.91973 16.707 9.89449 16.7207C9.98538 17.2812 10.1116 18 10.2606 18.7461H4.6052C4.20124 18.7461 3.8705 19.0391 3.9311 19.3984L4.71628 24.002H3.99926C3.33779 23.9629 3.002 23.6992 2.94645 23.2402C2.97928 21.1836 1.96939 18.6953 4.7693 17.4883C5.79434 17.0449 8.43772 16.8945 9.59152 16.3105C9.76825 16.0547 9.96266 15.5938 10.0813 15.3203C10.0939 15.2891 10.0737 15.3398 10.0939 15.2949C9.66979 14.9434 9.3239 14.5273 8.99064 14.1172L8.04134 12.9492C7.69293 12.5488 7.51368 12.1816 7.50105 11.8809C7.496 11.7402 7.5263 11.6113 7.59447 11.498C7.66516 11.3809 7.77372 11.2812 7.92016 11.2051C7.98832 11.1699 8.06659 11.1387 8.14991 11.1133C8.08931 10.4785 8.06407 9.67969 8.10446 9.01172C8.12466 8.85352 8.16505 8.69336 8.2206 8.53516C8.56901 7.57422 9.63697 6.88086 10.8564 6.55469C11.4472 6.39648 11.22 6.01953 11.8183 6.04492C13.2372 6.10547 15.4236 6.8125 16.2644 7.5625C17.4459 8.61133 17.1404 9.9043 17.1026 11.1875ZM10.609 17.6152C10.1293 17.1934 10.0889 16.752 10.609 16.2852C11.2099 16.4023 11.7603 16.6035 12.2677 16.875C12.3763 16.8379 12.505 16.8223 12.6288 16.8301C13.1564 16.541 13.828 16.4238 14.4163 16.207C15.1181 16.7363 15.0424 17.2227 14.3531 17.6738C13.9669 17.6055 13.6008 17.5 13.2498 17.3613C13.2397 17.4316 13.217 17.5078 13.1741 17.5898L13.3534 18.7441H11.9218L12.1011 17.5898C11.99 17.4434 11.9471 17.3184 11.9496 17.2148C11.533 17.4082 11.0811 17.5332 10.609 17.6152Z" fill="white" stroke="white" stroke-width="2" mask="url(#path-1-inside-1_1019_2515)"/>
</svg>
