<svg width="25" height="24" viewBox="0 0 25 24" fill="none" xmlns="http://www.w3.org/2000/svg">
<path d="M12.5 2C6.98 2 2.5 6.48 2.5 12C2.5 17.52 6.98 22 12.5 22C18.02 22 22.5 17.52 22.5 12C22.5 6.48 18.02 2 12.5 2ZM12.74 15.25C13.52 15.25 14.29 14.96 14.88 14.44C15.19 14.17 15.67 14.2 15.94 14.51C16.21 14.82 16.18 15.3 15.87 15.57C15 16.34 13.89 16.76 12.74 16.76C10.12 16.76 7.99 14.63 7.99 12.01C7.99 9.39 10.12 7.26 12.74 7.26C13.89 7.26 15.01 7.68 15.87 8.45C16.18 8.72 16.21 9.2 15.94 9.51C15.66 9.82 15.19 9.85 14.88 9.58C14.29 9.06 13.53 8.77 12.74 8.77C10.95 8.77 9.49 10.23 9.49 12.02C9.49 13.81 10.95 15.25 12.74 15.25Z" fill="white"/>
</svg>
