<svg width="24" height="24" viewBox="0 0 24 24" fill="none" xmlns="http://www.w3.org/2000/svg">
<path d="M10.8711 7.44385C10.6726 6.96929 10.6972 5.99688 10.7165 5.23076C10.7217 5.02448 10.7266 4.83315 10.7266 4.67053C10.7266 1.05651 7.85352 -0.534682 6.09766 0.164285C5.86612 0.256598 5.768 0.459603 5.66025 0.682508C5.60258 0.801821 5.54215 0.926837 5.45703 1.04363M10.8711 7.44385L4.30469 11.1609C3.9043 10.1076 3.76172 8.43915 4.19922 7.32789C4.33863 6.97398 4.31849 5.86799 4.30506 5.12986C4.30174 4.94764 4.29883 4.78784 4.29883 4.6673C4.29883 2.94727 4.79102 1.96163 5.45703 1.04363M10.8711 7.44385C11.1152 8.02685 11.1445 8.87399 11.0566 9.66637M10.8711 7.44385L0 24M5.45703 1.04363L5.86174 1.33725C5.86166 1.33736 5.86157 1.33748 5.86149 1.33759M5.45703 1.04363L5.8611 1.33812C5.86123 1.33794 5.86136 1.33777 5.86149 1.33759M4.66446 7.51105C4.48018 7.97914 4.40811 8.59766 4.43724 9.24363C4.46621 9.88618 4.59338 10.5132 4.77206 10.9833L4.78875 11.0272L4.79697 11.0734C4.87247 11.4981 5.06389 12.1368 5.26345 12.8027C5.292 12.898 5.32071 12.9938 5.34928 13.0896C5.46028 13.462 5.56754 13.8305 5.64448 14.1441C5.71544 14.4334 5.78112 14.7515 5.76434 14.9848M4.66446 7.51105L5.26562 14.9489M4.66446 7.51105C4.7381 7.32406 4.76912 7.07306 4.78658 6.85078C4.80544 6.61069 4.81258 6.33523 4.8142 6.06338C4.81582 5.7903 4.81189 5.51328 4.80763 5.26908C4.80672 5.21675 4.8058 5.16623 4.80492 5.1177C4.80162 4.9363 4.79883 4.78283 4.79883 4.6673C4.79883 3.07302 5.24462 2.18792 5.86149 1.33759M4.66446 7.51105L9.71393 10.8246M5.76434 14.9848L5.26562 14.9489M5.76434 14.9848C5.76434 14.9847 5.76434 14.9846 5.76435 14.9846L5.26562 14.9489M5.76434 14.9848C5.6643 16.3815 5.25239 17.215 4.60505 17.7553C4.29495 18.0141 3.95425 18.1853 3.62938 18.3225C3.47299 18.3886 3.31392 18.4494 3.16281 18.5071L3.14659 18.5133C2.98783 18.5739 2.83682 18.6319 2.688 18.6952C2.11028 18.9411 1.59806 19.2543 1.20758 19.9605C0.835741 20.633 0.550418 21.7056 0.50602 23.5002M5.26562 14.9489C5.10222 17.231 4.08143 17.621 2.98148 18.0411C1.60793 18.5658 0.110949 19.1376 0.00587042 23.5L0.50602 23.5002M0.50602 23.5002L8.50859 23.503M0.50602 23.5002C0.502044 23.6609 0.5 23.8275 0.5 24H0M0 24L8.51976 24.0031C8.51297 23.9167 8.50781 23.8225 8.50781 23.723C8.50781 23.6486 8.50807 23.5753 8.50859 23.503M0 24L9.71393 10.8246M8.50859 23.503L9.00862 23.5032C9.02192 21.7243 9.2016 20.7141 9.64648 19.9866C9.96469 19.4667 10.3282 19.2194 10.799 19.0315L10.7946 19.0229C10.7857 19.0067 10.7768 18.9904 10.7682 18.9742C10.6746 18.8895 10.5895 18.7943 10.5136 18.6942C10.4975 18.6729 10.4817 18.6512 10.4662 18.6292M8.50859 23.503C8.52155 21.7101 8.6989 20.5777 9.21992 19.7257L9.22003 19.7256C9.46668 19.3226 9.74869 19.0414 10.0838 18.8311C10.2071 18.7537 10.3351 18.6877 10.4662 18.6292M10.4662 18.6292C10.5594 18.5877 10.6543 18.5501 10.7502 18.5149C10.8174 18.4903 10.8851 18.4669 10.9532 18.4443C10.9393 18.4273 10.9256 18.4099 10.9121 18.3922C10.7559 18.186 10.6328 17.9251 10.541 17.6256C10.4883 17.4549 10.4473 17.2713 10.416 17.0844C10.3887 16.9169 10.3691 16.7301 10.3574 16.5336M10.4662 18.6292C10.2895 18.3778 10.1585 18.0838 10.0631 17.7726C10.0025 17.5762 9.9569 17.3704 9.92287 17.1669L9.92254 17.165C9.89446 16.9929 9.87438 16.8069 9.86159 16.6152M10.3574 16.5336C10.3555 16.5079 10.3535 16.4789 10.3535 16.4499V16.4402M10.3574 16.5336L10.22 16.5418L10.3408 16.4499L10.3535 16.4402M10.3574 16.5336L10.2168 16.5443L9.95566 16.7431C9.92363 16.701 9.89225 16.6584 9.86159 16.6152M10.3535 16.4402C10.0078 15.9861 9.76562 15.49 9.70117 14.9521M10.3535 16.4402H9.85352V16.4499C9.85352 16.4968 9.85648 16.5399 9.85855 16.5674C9.85951 16.5834 9.86052 16.5993 9.86159 16.6152M9.70117 14.9521C9.66016 14.6203 9.89258 13.8634 10.1523 13.0678M9.70117 14.9521L9.20472 15.0116M9.70117 14.9521L9.20495 15.0134C9.20487 15.0128 9.2048 15.0122 9.20472 15.0116M10.1523 13.0678C9.93164 12.7425 9.82812 12.2271 9.91016 11.7214M10.1523 13.0678L9.67704 12.9126C9.65419 12.9826 9.63141 13.0527 9.60889 13.1226M10.1523 13.0678L9.73857 13.3485C9.69062 13.2778 9.64736 13.2022 9.60889 13.1226M9.91016 11.7214C9.94727 11.483 10.0234 11.2769 10.1211 11.1158L10.123 11.1126C10.1279 11.1062 10.1323 11.0989 10.1367 11.0917C10.1411 11.0844 10.1455 11.0772 10.1504 11.0707M9.91016 11.7214L9.41661 11.6413C9.41652 11.6419 9.41643 11.6424 9.41635 11.6429M9.91016 11.7214L9.41611 11.6445C9.41619 11.644 9.41627 11.6435 9.41635 11.6429M10.1504 11.0707C10.3555 10.7003 10.5645 10.3621 10.7734 10.0561C10.8672 9.92083 10.9609 9.78877 11.0566 9.66637M10.1504 11.0707L9.75192 10.7687C9.73996 10.7845 9.73053 10.7985 9.72405 10.8086M10.1504 11.0707L9.84401 10.9011L9.71296 10.8286C9.71458 10.8256 9.7162 10.8227 9.71782 10.8198C9.71345 10.8259 9.71048 10.8305 9.70912 10.8326C9.70744 10.8352 9.70641 10.837 9.70918 10.8324C9.70997 10.8311 9.71168 10.8283 9.71393 10.8246M11.0566 9.66637L10.6628 9.35839C10.6326 9.39694 10.6028 9.43613 10.5734 9.47565M11.0566 9.66637L10.5597 9.61124C10.5647 9.56596 10.5693 9.52074 10.5734 9.47565M10.5734 9.47565C10.5007 9.57352 10.4303 9.6735 10.3625 9.77132L10.3605 9.77412C10.1462 10.088 9.93281 10.4329 9.72405 10.8086M10.5734 9.47565C10.6393 8.75904 10.593 8.07422 10.4099 7.63698L10.4098 7.63679C10.3196 7.421 10.2725 7.16495 10.2453 6.9194C10.2173 6.66729 10.2068 6.39252 10.2044 6.12323C10.202 5.85307 10.2077 5.5796 10.2139 5.33025C10.2148 5.29168 10.2158 5.25382 10.2167 5.2167C10.2219 5.01 10.2266 4.82624 10.2266 4.67053C10.2266 1.30447 7.6179 0.0975516 6.28283 0.628731L6.09766 0.164294L6.28258 0.628831C6.28228 0.628951 6.28196 0.629073 6.28164 0.6292C6.26925 0.634021 6.24165 0.644762 6.17707 0.76622C6.15385 0.809885 6.13727 0.844395 6.11706 0.886468C6.10102 0.919852 6.08269 0.957997 6.05695 1.00926C6.00823 1.10625 5.94579 1.22183 5.86149 1.33759M9.72405 10.8086C9.72217 10.8119 9.72028 10.8153 9.7184 10.8187L9.71393 10.8246M9.72405 10.8086C9.72348 10.8094 9.72295 10.8103 9.72243 10.8111C9.71926 10.816 9.71629 10.8208 9.71393 10.8246M9.71393 10.8246L9.70894 10.8312L9.69552 10.8533L9.69357 10.8566L9.69355 10.8566C9.5589 11.0787 9.46255 11.3474 9.41635 11.6429M9.41635 11.6429C9.3338 12.1539 9.40248 12.6956 9.60889 13.1226M9.60889 13.1226C9.50351 13.4498 9.4039 13.7727 9.32991 14.0586C9.28496 14.2323 9.24728 14.4005 9.22369 14.5533C9.20127 14.6985 9.18638 14.8609 9.20472 15.0116M9.20472 15.0116C9.27619 15.608 9.52612 16.1434 9.86159 16.6152M11.3336 11.9549C11.2368 11.8246 11.1113 11.7073 10.9482 11.6246C12.1435 9.62433 13.4773 8.6656 14.4922 10.565C14.7773 10.5876 15.0332 10.7422 15.2461 11.074C15.6934 11.7665 15.7637 13.0646 15.5586 14.0953V14.994C15.6973 15.1454 15.7871 15.4256 15.8262 15.7445C15.8535 15.9506 15.8594 16.1793 15.8457 16.3951C15.832 16.6206 15.7988 16.8364 15.7441 17.0136C15.666 17.268 15.5488 17.4452 15.3887 17.4838C15.2324 17.7608 15.0781 18.054 14.9414 18.3374C14.791 18.6499 14.6621 18.943 14.5742 19.1878M11.3336 11.9549C11.2681 12.0664 11.2027 12.1816 11.1375 12.3003L10.7731 12.1002C11.233 12.4015 11.2448 13.3945 11.2545 14.22C11.2571 14.4341 11.2595 14.637 11.2695 14.8136M11.3336 11.9549C11.5746 11.5451 11.8174 11.1859 12.0572 10.8906C12.3662 10.5098 12.6485 10.2621 12.8906 10.1359C13.1185 10.017 13.2806 10.0181 13.419 10.0782C13.5811 10.1485 13.8057 10.3412 14.0512 10.8007L14.1801 11.0419L14.4528 11.0635C14.5524 11.0714 14.6793 11.1165 14.8253 11.344L14.8261 11.3452C14.9871 11.5945 15.1045 12.0001 15.1489 12.5019C15.1925 12.9939 15.1616 13.5284 15.0682 13.9977L15.0586 14.046V14.0953V14.994V15.1884L15.1899 15.3317C15.2191 15.3636 15.2939 15.5114 15.3299 15.8053L15.3299 15.8053L15.3305 15.8102C15.3531 15.9806 15.3586 16.1765 15.3467 16.3635L15.3466 16.3649C15.3345 16.5649 15.3057 16.7387 15.2664 16.8661L15.2662 16.8668C15.252 16.913 15.2377 16.9502 15.2242 16.9793C15.2178 16.9932 15.212 17.0045 15.2069 17.0133M11.3336 11.9549C11.417 12.0669 11.4792 12.1885 11.5259 12.3059C11.6319 12.5722 11.6835 12.8773 11.7119 13.1653C11.7408 13.4575 11.7483 13.7638 11.7523 14.0418C11.7532 14.1033 11.7539 14.163 11.7546 14.2209C11.7562 14.3555 11.7577 14.4803 11.761 14.5955M11.2695 14.8136L11.4531 14.994C11.3164 15.1454 11.2285 15.4256 11.1875 15.7445M11.2695 14.8136L11.6199 14.4569L11.761 14.5955M11.2695 14.8136L11.6517 14.7918L11.7687 14.7852C11.7667 14.7505 11.7651 14.7147 11.7637 14.6779C11.7626 14.651 11.7618 14.6235 11.761 14.5955M11.1875 15.7445C11.1621 15.9506 11.1562 16.1793 11.168 16.3951M11.1875 15.7445L11.6838 15.8056C11.6837 15.806 11.6836 15.8064 11.6836 15.8069M11.1875 15.7445L11.6834 15.8083C11.6835 15.8078 11.6835 15.8073 11.6836 15.8069M11.168 16.3951C11.1816 16.6206 11.2148 16.8396 11.2695 17.0136C11.3457 17.268 11.4648 17.4452 11.625 17.4838C11.7812 17.7576 11.9355 18.054 12.0723 18.3374C12.2207 18.6499 12.3496 18.9462 12.4395 19.1878M11.168 16.3951L11.6671 16.3649C11.6671 16.3654 11.6671 16.3659 11.6671 16.3665M11.168 16.3951L11.6672 16.368C11.6672 16.3675 11.6672 16.367 11.6671 16.3665M12.4395 19.1878C12.5234 19.4132 12.4961 19.5485 12.4668 19.6806M12.4395 19.1878L12.908 19.0132M12.4395 19.1878L12.9081 19.0135C12.9081 19.0134 12.908 19.0133 12.908 19.0132M12.4668 19.6806C12.4648 19.6903 12.4629 19.6999 12.4609 19.7095C12.4512 19.7571 12.4417 19.8036 12.4336 19.8545C12.2 19.9365 11.9833 20.0045 11.7859 20.0666C11.7505 20.0777 11.7158 20.0886 11.6816 20.0993L11.681 20.0995C10.2635 20.5374 9.82422 20.6732 9.82422 23.7133C9.82422 23.868 9.90039 23.9936 9.99414 23.9936H17.0195C17.1133 23.9936 17.1895 23.868 17.1895 23.7133C17.1895 20.6739 16.7484 20.5375 15.3338 20.0999L15.332 20.0993C15.3028 20.09 15.273 20.0806 15.2429 20.071C15.0437 20.0078 14.8251 19.9385 14.5859 19.8545C14.5798 19.7942 14.5702 19.7377 14.5606 19.6821C14.558 19.6665 14.5553 19.651 14.5527 19.6355M12.4668 19.6806L12.9569 19.7797C12.9566 19.7812 12.9562 19.7828 12.9559 19.7844M12.4668 19.6806L12.9549 19.7889L12.9556 19.7857C12.9557 19.7853 12.9558 19.7848 12.9559 19.7844M14.5527 19.6355C14.5273 19.497 14.5059 19.3746 14.5742 19.1878M14.5527 19.6355L14.0609 19.7257L14.0608 19.725C14.0606 19.7238 14.0604 19.7226 14.0602 19.7214M14.5527 19.6355L14.0594 19.7171C14.0597 19.7185 14.0599 19.72 14.0602 19.7214M14.5742 19.1878L14.1047 19.016C14.1045 19.0164 14.1043 19.0169 14.1041 19.0174M14.5742 19.1878L14.1036 19.0188C14.1038 19.0183 14.104 19.0179 14.1041 19.0174M16.8804 18.8003C16.7323 18.7118 16.5774 18.6381 16.4156 18.5724C17.0436 17.8888 17.031 17.1885 17.0125 16.1664C17.0096 16.0071 17.0066 15.84 17.0059 15.6639H16.6445M16.8804 18.8003C16.8176 18.8756 16.749 18.9503 16.6739 19.0246L16.6728 19.0257C16.6227 19.075 16.5712 19.123 16.5181 19.1698C16.8466 19.3443 17.1192 19.582 17.3652 19.9834M16.8804 18.8003C17.2362 18.3736 17.4032 17.9279 17.4726 17.4385C17.529 17.0407 17.5207 16.591 17.5121 16.1224C17.5093 15.9705 17.5065 15.8166 17.5059 15.6618L17.5037 15.1639H17.0903M16.8804 18.8003C17.2192 19.0029 17.5224 19.283 17.7915 19.7221M17.3652 19.9834C17.8281 20.7371 18.0059 21.8033 18.0059 23.7198V23.2488H18.5021M17.3652 19.9834L17.7913 19.7217C17.7914 19.7218 17.7915 19.722 17.7915 19.7221M17.3652 19.9834L17.7915 19.7221M18.5021 23.2488C18.5046 23.4008 18.5059 23.5577 18.5059 23.7198V23.7488H23.8789C23.9453 23.7488 24 23.6586 24 23.5491V22.1833C24 20.6699 22.717 20.0116 21.635 19.4564C21.1925 19.2293 20.7836 19.0195 20.5098 18.7755C19.6784 18.0317 19.6889 17.348 19.7071 16.1686C19.7096 16.0099 19.7122 15.8421 19.7129 15.6639H21.0488C22.208 15.6639 22.7087 15.6894 22.8471 15.4779C23.1085 15.0785 22.0788 13.8343 21.752 9.97881M18.5021 23.2488C18.4742 21.5996 18.2881 20.5309 17.7915 19.7221M18.5021 23.2488H23.5M21.752 9.97881C20.9902 1.02108 15.9238 0.818157 15.0449 9.36681M21.752 9.97881L21.2538 10.0212C21.2537 10.0211 21.2537 10.0211 21.2537 10.021M21.752 9.97881L21.2537 10.021M15.0449 9.36681C15.0977 9.39258 15.1484 9.42157 15.1973 9.46022M15.0449 9.36681L15.2644 8.91757C15.3312 8.9502 15.409 8.99303 15.4888 9.05362C15.5182 9.0733 15.5471 9.09376 15.5757 9.11498M15.0449 9.36681L15.2451 9.38739L15.1973 9.46022M15.1973 9.46022C15.418 9.60517 15.6211 9.81453 15.8027 10.098M15.1973 9.46022L15.2542 9.38832L15.5423 9.41795C15.5528 9.31557 15.564 9.21458 15.5757 9.11498M15.8027 10.098C16.1543 10.6423 16.3613 11.3767 16.4414 12.1595M15.8027 10.098L16.2228 9.82672C16.2231 9.82722 16.2234 9.82772 16.2237 9.82821M15.8027 10.098L16.2237 9.82821M16.4414 12.1595C16.5137 12.8552 16.4844 13.6057 16.373 14.2853M16.4414 12.1595L16.9387 12.1078C16.9388 12.1081 16.9388 12.1083 16.9388 12.1086M16.4414 12.1595L16.9388 12.1086M16.373 14.2853V14.485M16.373 14.2853H16.873V14.3254M16.373 14.2853L16.7152 14.3414L16.373 14.485M16.373 14.485C16.3906 14.5269 16.4082 14.572 16.4238 14.6171M16.373 14.485H16.7868L16.4238 14.6171M16.4238 14.6171C16.5176 14.8748 16.582 15.1647 16.6211 15.4642M16.4238 14.6171L16.805 14.485H16.873V14.4615L16.8963 14.4534C16.8958 14.4522 16.8954 14.4509 16.895 14.4496M16.6211 15.4642H16.623C16.6309 15.5287 16.6387 15.5931 16.6445 15.6639M16.6211 15.4642L16.623 15.464L16.6445 15.4612V15.4616V15.6639M16.6211 15.4642V14.9642H16.623H17.0418M16.6445 15.6639L17.0059 15.6341L17.1428 15.6227C17.1362 15.5423 17.1274 15.4698 17.1198 15.407L17.1194 15.404L17.0903 15.1639M17.0418 14.9642C17.0562 15.0304 17.0692 15.097 17.081 15.1639H17.0903M17.0418 14.9642C17.0032 14.7876 16.9547 14.6145 16.895 14.4496M17.0418 14.9642H17.0661L17.0903 15.1639M16.895 14.4496C16.8945 14.4485 16.8941 14.4473 16.8937 14.4462L16.873 14.4537V14.3893M16.895 14.4496C16.8879 14.4292 16.8805 14.4091 16.873 14.3893M23.5 23.2488V23.5491C23.5 23.5265 23.5046 23.4839 23.5368 23.4307C23.5625 23.3884 23.6679 23.2488 23.8789 23.2488H23.5ZM23.5 23.2488V22.1833C23.5 21.3691 23.0357 20.8595 22.3402 20.4168C22.045 20.229 21.7317 20.0681 21.412 19.904C21.3493 19.8718 21.2863 19.8395 21.2232 19.8068C20.8589 19.6182 20.467 19.4071 20.1771 19.1488L20.1764 19.1481C19.6227 18.6528 19.3638 18.1492 19.2624 17.5495C19.1914 17.1301 19.1991 16.6484 19.2074 16.1262C19.2098 15.9747 19.2123 15.8198 19.2129 15.662L19.2148 15.1639H19.7129H21.0488C21.1725 15.1639 21.2872 15.1642 21.394 15.1645C21.6558 15.1651 21.8697 15.1656 22.0498 15.1617C22.1826 15.1588 22.282 15.1534 22.3561 15.1466M22.3561 15.1466C22.3573 15.1512 22.3586 15.1558 22.3598 15.1604C22.3878 15.2668 22.3883 15.3059 22.3893 15.3059C22.3898 15.3059 22.3906 15.2914 22.3978 15.2686C22.4335 15.1565 22.519 15.1213 22.5185 15.1203C22.5185 15.1201 22.5154 15.1211 22.5084 15.123C22.4767 15.1318 22.4285 15.1399 22.3561 15.1466ZM22.3561 15.1466C22.324 15.0279 22.2738 14.8777 22.2116 14.6918C21.9449 13.8942 21.4589 12.4413 21.2537 10.021M21.2537 10.021C21.0667 7.82128 20.6179 6.19978 20.0627 5.13277C19.4972 4.04598 18.884 3.63968 18.4079 3.60672C17.95 3.57503 17.3576 3.8757 16.7881 4.84883C16.254 5.76154 15.8039 7.17483 15.5757 9.11498M15.5757 9.11498C15.8212 9.29749 16.0369 9.53665 16.2237 9.82821M16.2237 9.82821C16.6323 10.4617 16.8541 11.2807 16.9388 12.1086M16.9388 12.1086C17.0144 12.8372 16.9856 13.6161 16.873 14.3254M16.873 14.3254V14.3893M16.873 14.3254C16.8709 14.339 16.8687 14.3526 16.8665 14.3662L16.8641 14.3658C16.8671 14.3735 16.8701 14.3814 16.873 14.3893M14.1041 19.0174C13.9898 19.3308 14.0309 19.562 14.0602 19.7214M14.1041 19.0174L15.2069 17.0133M15.2069 17.0133C15.2013 17.0233 15.1967 17.0303 15.1933 17.0348C15.1908 17.0383 15.1894 17.0398 15.1894 17.0398C15.1895 17.0398 15.2145 17.0115 15.2714 16.9978L15.2069 17.0133ZM11.761 14.5955L11.8035 14.6373L12.1455 14.9733L11.8242 15.3291C11.7953 15.361 11.7221 15.509 11.6836 15.8069M11.6836 15.8069C11.6624 15.9796 11.657 16.1774 11.6671 16.3665M11.6671 16.3665C11.6794 16.5675 11.7083 16.7422 11.7465 16.8636L11.7486 16.8702L11.7485 16.8702C11.762 16.9152 11.7759 16.9516 11.7889 16.98C11.7951 16.9935 11.8008 17.0045 11.8058 17.0131M11.8058 17.0131L11.7423 16.9978C11.7983 17.0113 11.8229 17.039 11.8229 17.0389C11.8229 17.0389 11.8216 17.0375 11.819 17.034C11.8158 17.0296 11.8112 17.0228 11.8058 17.0131ZM11.8058 17.0131L11.9522 17.0485L12.0593 17.236C12.2219 17.5209 12.3815 17.8276 12.5226 18.1202L12.5239 18.1229C12.6759 18.4427 12.8113 18.7532 12.908 19.0132M12.908 19.0132C12.9687 19.1762 12.9956 19.3254 12.9956 19.4692C12.9956 19.6047 12.9709 19.7169 12.9559 19.7844M12.9559 19.7844C12.9539 19.7942 12.9521 19.8035 12.9502 19.8123C12.9407 19.8593 12.9337 19.8938 12.9273 19.9333L12.8804 20.2276L12.5991 20.3263C12.3571 20.4113 12.1316 20.4821 11.9342 20.544C11.8993 20.555 11.8652 20.5657 11.8321 20.5762L11.8292 20.5771C11.0735 20.8105 10.8183 20.9128 10.6475 21.1915C10.5542 21.344 10.4687 21.584 10.4101 21.9976C10.3575 22.3687 10.33 22.8522 10.325 23.4936M10.325 23.4936H9.99414C10.1896 23.4936 10.2833 23.6221 10.3016 23.6522C10.3147 23.6739 10.3199 23.6902 10.3219 23.698C10.324 23.7064 10.3242 23.7114 10.3242 23.7133C10.3242 23.6381 10.3245 23.5649 10.325 23.4936ZM10.325 23.4936H16.6886M16.6886 23.4936C16.6892 23.5649 16.6895 23.6381 16.6895 23.7133C16.6895 23.7127 16.6895 23.7116 16.6896 23.7101C16.6898 23.7074 16.6904 23.7034 16.6918 23.698C16.6938 23.6902 16.6989 23.6739 16.7121 23.6522C16.7304 23.6221 16.8241 23.4936 17.0195 23.4936H16.6886ZM16.6886 23.4936C16.6836 22.8522 16.656 22.3688 16.6033 21.9978C16.5446 21.5843 16.459 21.3442 16.3655 21.1917C16.1945 20.9128 15.9389 20.8105 15.1843 20.577L15.1804 20.5758C15.1517 20.5666 15.1223 20.5573 15.0924 20.5478C14.8934 20.4847 14.6673 20.4129 14.4204 20.3263L14.1204 20.2211L14.0885 19.9048C14.0842 19.863 14.0782 19.8279 14.0696 19.7771C14.0667 19.7605 14.0636 19.7422 14.0602 19.7214" fill="white" stroke="white"/>
</svg>
