<svg width="150" height="150" viewBox="0 0 150 150" fill="none" xmlns="http://www.w3.org/2000/svg">
<circle cx="75" cy="75" r="74.5" fill="white" stroke="#99A1BC"/>
<path d="M125.354 25.3536C125.549 25.1583 125.549 24.8417 125.354 24.6464C125.158 24.4512 124.842 24.4512 124.646 24.6464L125.354 25.3536ZM90.6464 58.6465C90.4512 58.8417 90.4512 59.1583 90.6464 59.3536C90.8417 59.5488 91.1583 59.5488 91.3535 59.3536L90.6464 58.6465ZM59.3535 91.3536C59.5488 91.1583 59.5488 90.8417 59.3535 90.6465C59.1583 90.4512 58.8417 90.4512 58.6464 90.6465L59.3535 91.3536ZM24.6464 124.646C24.4512 124.842 24.4512 125.158 24.6464 125.354C24.8417 125.549 25.1583 125.549 25.3536 125.354L24.6464 124.646ZM25.3536 24.6464C25.1583 24.4512 24.8417 24.4512 24.6464 24.6464C24.4512 24.8417 24.4512 25.1583 24.6464 25.3536L25.3536 24.6464ZM58.6465 59.3536C58.8417 59.5488 59.1583 59.5488 59.3536 59.3536C59.5488 59.1583 59.5488 58.8417 59.3536 58.6465L58.6465 59.3536ZM91.3536 90.6465C91.1583 90.4512 90.8417 90.4512 90.6465 90.6465C90.4512 90.8417 90.4512 91.1583 90.6465 91.3536L91.3536 90.6465ZM124.646 125.354C124.842 125.549 125.158 125.549 125.354 125.354C125.549 125.158 125.549 124.842 125.354 124.646L124.646 125.354ZM124.646 24.6464L90.6464 58.6465L91.3535 59.3536L125.354 25.3536L124.646 24.6464ZM58.6464 90.6465L24.6464 124.646L25.3536 125.354L59.3535 91.3536L58.6464 90.6465ZM24.6464 25.3536L58.6465 59.3536L59.3536 58.6465L25.3536 24.6464L24.6464 25.3536ZM90.6465 91.3536L124.646 125.354L125.354 124.646L91.3536 90.6465L90.6465 91.3536Z" fill="#8089AC"/>
<path d="M68.72 79.6733L68.7067 79.6867C68.5267 79.2933 68.4134 78.8467 68.3667 78.3533C68.4134 78.84 68.54 79.28 68.72 79.6733Z" fill="#8089AC"/>
<path d="M73 73.92C73.8763 73.92 74.5867 73.2096 74.5867 72.3333C74.5867 71.457 73.8763 70.7466 73 70.7466C72.1237 70.7466 71.4133 71.457 71.4133 72.3333C71.4133 73.2096 72.1237 73.92 73 73.92Z" fill="#8089AC"/>
<path d="M77.7934 68.3333H72.2067C69.78 68.3333 68.3334 69.78 68.3334 72.2066V77.7933C68.3334 78.52 68.46 79.1533 68.7067 79.6866C69.28 80.9533 70.5067 81.6666 72.2067 81.6666H77.7934C80.22 81.6666 81.6667 80.22 81.6667 77.7933V76.2666V72.2066C81.6667 69.78 80.22 68.3333 77.7934 68.3333ZM80.58 75.3333C80.06 74.8866 79.22 74.8866 78.7 75.3333L75.9267 77.7133C75.4067 78.16 74.5667 78.16 74.0467 77.7133L73.82 77.5266C73.3467 77.1133 72.5934 77.0733 72.06 77.4333L69.5667 79.1066C69.42 78.7333 69.3334 78.3 69.3334 77.7933V72.2066C69.3334 70.3266 70.3267 69.3333 72.2067 69.3333H77.7934C79.6734 69.3333 80.6667 70.3266 80.6667 72.2066V75.4066L80.58 75.3333Z" fill="#8089AC"/>
</svg>
