<svg width="25" height="24" viewBox="0 0 25 24" fill="none" xmlns="http://www.w3.org/2000/svg">
<path d="M6.81479 10.6137L6.81487 10.6138L6.82012 10.6054C7.01908 10.2881 7.23659 10.133 7.50914 10.0321C7.80541 9.92234 8.16128 9.87622 8.67478 9.80968C8.68195 9.80875 8.68915 9.80781 8.69638 9.80688H16.3343C16.914 9.9256 17.3445 10.033 17.6968 10.2178C17.97 10.361 18.2066 10.5571 18.4149 10.8712L18.1481 10.9781L12.5201 13.2325L6.96385 11.1332L6.57159 10.985L6.81479 10.6137ZM17.7266 21.1346V23.5H7.17972V21.2623V20.5725L6.52415 20.7871L2.93052 21.9636C2.43987 22.0786 2.0654 22.0251 1.79444 21.8894C1.52182 21.7529 1.30452 21.5087 1.17157 21.1526L1.17129 21.1519C0.704464 19.9077 1.25385 19.0837 2.01756 17.9382L2.02738 17.9235L2.02739 17.9235L2.02964 17.92L6.28714 11.4194V11.601V16.5306V17.2127L6.93764 17.0074C7.7692 16.7449 8.35005 16.808 8.72745 16.9888C9.09989 17.1671 9.34174 17.4916 9.44466 17.8997C9.65662 18.7401 9.25574 19.8778 8.19003 20.4237L7.20114 20.9303L8.23612 21.3345L12.2732 22.911L12.4454 22.9782L12.6199 22.9173L16.7996 21.4582L17.7266 21.1346ZM17.7266 20.3598V20.9958L16.8677 20.5437C15.8102 19.987 15.3588 18.8649 15.5396 18.0457C15.6263 17.6525 15.856 17.3255 16.2505 17.1298C16.6558 16.9288 17.2911 16.8399 18.2205 17.0567L18.834 17.1997V16.5697V11.5412L23.1212 18.0685L23.1213 18.0687C23.1972 18.1841 23.2689 18.2902 23.3362 18.3898C23.7553 19.0101 24.0014 19.3744 24 20.1198C23.9983 20.8417 23.685 21.467 23.2229 21.8007L23.222 21.8013C22.9063 22.0305 22.666 22.0883 22.443 22.0824C22.1925 22.0757 21.9179 21.9888 21.5194 21.8336L21.519 21.8335L18.4077 20.6245L17.7266 20.3598ZM12.5938 0.5C14.3037 0.5 15.7774 2.05958 15.7774 4.10111C15.7774 6.14265 14.3037 7.70223 12.5938 7.70223C10.884 7.70223 9.41039 6.14287 9.41019 4.10155C9.41195 2.05943 10.8861 0.5 12.5938 0.5Z" fill="white" stroke="white"/>
</svg>
