<svg width="24" height="24" viewBox="0 0 24 24" fill="none" xmlns="http://www.w3.org/2000/svg">
<mask id="path-1-inside-1_1019_2961" fill="white">
<path fill-rule="evenodd" clip-rule="evenodd" d="M16.619 8.2793V6.75391C16.6935 6.45898 16.7969 6.42969 16.952 6.40234C17.3698 6.3418 17.3222 8.17969 16.619 8.2793ZM17.1216 18.2617C17.1195 18.2461 17.1174 18.2305 17.1174 18.2109C17.1174 18.1953 17.1195 18.1777 17.1216 18.1621V17.084C16.1785 17.0117 15.2024 17.0937 14.3524 17.3535C13.5562 17.5957 12.8717 17.9902 12.4271 18.5586V23.0488C13.1199 22.6797 13.8271 22.5156 14.5551 22.3066C15.3844 22.0703 16.2385 21.957 17.1216 22.0156V18.2617ZM11.6102 23.1289V18.5508C11.1821 17.9473 10.4913 17.543 9.70961 17.3027C8.82447 17.0312 7.82973 16.9707 6.96114 17.0684L6.91564 22.0371C7.86075 22.0098 8.78725 22.1055 9.65584 22.334C10.3507 22.5137 11.0084 22.7793 11.6102 23.1289ZM18.0605 23.2559C17.2084 23.0977 16.3626 22.998 15.523 22.9941C14.431 22.9883 13.3391 23.5586 12.243 23.9453C12.1748 23.9805 12.0941 24 12.0114 24C11.9287 24 11.848 23.9824 11.7777 23.9453C9.13882 23.0098 8.79965 22.7227 5.93951 23.2598C5.93951 21.709 5.99741 20.6973 6.05118 19.6816H1.24291C0.463249 19.6289 0.0661784 19.2461 0 18.5879C0.26885 17.457 0.33296 16.6973 1.07333 15.7754C1.37113 15.4043 1.73925 15.1289 2.14873 14.916C3.44334 14.2344 7.57742 14.0352 8.75209 13.0352L10.0777 16.7168C10.3486 16.8027 10.6092 16.9062 10.8553 17.0293L11.4551 15.0664L11.0125 14.6094C10.814 14.334 10.7685 14.0918 10.8801 13.8867C11.12 13.4375 11.6164 13.5215 12.0817 13.5215C12.5677 13.5215 13.1674 13.4355 13.3205 14.0078C13.3722 14.1992 13.306 14.4004 13.1654 14.6094L12.7228 15.0664L13.3205 17.0254C13.55 16.9219 13.792 16.8301 14.0443 16.7539L15.2562 13.0371C16.4308 14.0352 20.5649 14.2363 21.8575 14.918C22.2649 15.1348 22.6371 15.4082 22.9349 15.7773C23.6753 16.6992 23.7374 17.459 24.0083 18.5898C23.9421 19.25 23.545 19.6309 22.7654 19.6855H17.9902C18.0233 20.7051 18.0605 21.6914 18.0605 23.2559ZM9.27531 6.6289C9.18638 6.66211 9.09125 6.60937 9.05816 6.51758C9.02714 6.42187 9.07471 6.31836 9.16364 6.28711C9.8461 6.03711 10.3321 6.05273 11.0166 6.28711C11.1056 6.31836 11.1552 6.41992 11.1283 6.51562C11.1014 6.61133 11.0042 6.66406 10.9174 6.63476C10.8036 6.59766 10.6899 6.5625 10.5761 6.53906C10.5885 6.57617 10.5947 6.61719 10.5947 6.66015C10.5947 6.9082 10.3838 7.11133 10.117 7.11133C9.85437 7.11133 9.63929 6.9082 9.63929 6.66015C9.63929 6.59765 9.6517 6.54101 9.67445 6.48828C9.47385 6.50781 9.47798 6.55469 9.27531 6.6289ZM13.184 6.6289C13.095 6.66211 12.9999 6.60937 12.9668 6.51758C12.9358 6.42187 12.9834 6.31836 13.0723 6.28711C13.7527 6.03711 14.2408 6.05273 14.9253 6.28711C15.0142 6.31836 15.0639 6.41992 15.037 6.51562C15.0101 6.61133 14.9129 6.66406 14.826 6.63476C14.7123 6.59766 14.5985 6.5625 14.4848 6.53906C14.4972 6.57617 14.5034 6.61719 14.5034 6.66015C14.5034 6.9082 14.2904 7.11133 14.0257 7.11133C13.763 7.11133 13.55 6.9082 13.55 6.66015C13.55 6.59765 13.5624 6.54101 13.5852 6.48828C13.3804 6.50781 13.3866 6.55469 13.184 6.6289ZM11.4695 8.65039C11.3889 8.58594 11.3765 8.4707 11.4447 8.39453C11.513 8.31836 11.635 8.30664 11.7156 8.37109C11.8128 8.44922 11.9059 8.48828 11.9928 8.48828C12.0817 8.49023 12.1789 8.45117 12.2823 8.36914C12.3629 8.30469 12.485 8.31836 12.5532 8.39453C12.6215 8.4707 12.609 8.58594 12.5263 8.65039C12.3505 8.78711 12.1685 8.85351 11.9886 8.84961C11.8066 8.84766 11.635 8.7793 11.4695 8.65039ZM13.4611 10.0273C13.3039 10.0781 13.1405 10.1211 12.973 10.1562C12.7993 10.2012 12.6421 10.2285 12.5015 10.2324C12.3402 10.2344 12.2016 10.207 12.092 10.1387C12.0589 10.1172 12.0279 10.0957 12.001 10.0703C11.9741 10.0937 11.9452 10.1172 11.91 10.1387C11.8004 10.209 11.6619 10.2363 11.5006 10.2324C11.3599 10.2285 11.2007 10.2031 11.029 10.1562C10.8615 10.1211 10.6981 10.0781 10.5389 10.0273C10.3817 9.97656 10.2266 9.91797 10.0777 9.85156C10.0053 9.82031 9.97639 9.74414 10.0136 9.67969C10.0364 9.64258 10.0757 9.61719 10.1191 9.61133C10.1997 9.59961 10.2639 9.5918 10.3238 9.58398L10.328 9.58203C10.5224 9.55664 10.6692 9.53711 10.8512 9.46875C10.9029 9.44922 10.9525 9.42773 11.0022 9.40625C11.2917 9.2793 11.6081 9.14258 11.9245 9.37891C11.9514 9.40039 11.9762 9.41992 11.999 9.44336C12.0217 9.41992 12.0465 9.40039 12.0734 9.37891C12.3878 9.14062 12.7062 9.2793 12.9958 9.40625C13.0454 9.42773 13.095 9.44922 13.1467 9.46875C13.3287 9.53711 13.4776 9.55664 13.67 9.58203L13.6762 9.58398C13.7361 9.5918 13.8003 9.59961 13.8809 9.61133C13.9243 9.61914 13.9657 9.64258 13.9864 9.67969C14.0236 9.74219 13.9947 9.82031 13.9223 9.85156C13.7734 9.91797 13.6183 9.97656 13.4611 10.0273ZM6.42551 3.54883V2.875C6.57441 1.70703 7.14933 1.23828 8.09651 1.37305C8.99405 0.486327 10.2639 -0.00976694 12.0134 0.00195181C13.9595 -0.0351576 15.6202 0.39453 16.8238 1.56055C17.4566 2.15625 17.7275 2.77734 17.5642 4.08984C17.5972 5.37695 17.7482 5.48242 17.3056 5.70898C17.3036 5.74414 17.3015 5.7793 17.2994 5.81641L16.9954 5.99805C17.2415 5.98047 17.4132 6.125 17.5166 6.37109C17.5662 6.49414 17.5993 6.64453 17.6138 6.80859C17.6262 6.96094 17.6241 7.13086 17.6014 7.30273C17.529 7.92773 17.225 8.58008 16.6625 8.65625C16.6377 8.66016 16.6128 8.66016 16.5901 8.6582V8.73828C16.5901 8.74219 16.5901 8.74609 16.5901 8.75C16.6273 9.62304 16.1392 10.5918 15.3513 11.3672C13.9181 12.7793 11.5647 13.4824 9.51934 11.8828C9.16364 11.6035 8.75002 11.3301 8.42533 10.8984C8.42947 10.8945 8.43361 10.8906 8.43567 10.8887L8.4274 10.8828C7.90004 10.4199 7.65187 10.2012 7.44093 9.25C7.43679 9.23242 7.43473 9.21094 7.43473 9.19336V8.6582C7.40577 8.66406 7.37475 8.66406 7.34373 8.6582C6.77915 8.58008 6.47721 7.92773 6.40483 7.30469C6.38621 7.13281 6.38208 6.96289 6.39242 6.81055C6.40689 6.64648 6.43998 6.49609 6.48962 6.37305C6.60129 6.10547 6.79569 5.95703 7.07488 6.00781C7.20931 6.03125 7.33339 6.0957 7.43473 6.20703V5.99023L7.20724 5.86914C7.18035 5.69336 7.17622 5.51562 7.18862 5.33398C6.77708 4.68359 6.45653 4.05078 6.42551 3.54883ZM15.9821 5.72265C15.7132 5.00976 15.3575 4.92969 14.7081 4.55469C14.1642 4.33203 13.6865 4.14258 13.2336 4.00781C12.1355 3.77734 10.9298 3.84375 9.93089 4.1582C9.66618 4.25586 9.38285 4.375 9.08091 4.51758C8.44395 4.86914 8.14821 4.9043 8.01379 5.50391V9.18945C8.24127 10.2168 8.22473 10.0254 8.92167 10.6699L10.1315 11.7871C10.3507 11.957 10.5968 12.0566 10.8574 12.1152C11.7529 12.3145 13.6327 12.2344 14.338 11.5332C15.3885 10.5684 16.0503 10.2773 15.9759 8.73437V5.72265H15.9821ZM11.0084 10.8945C10.9215 10.8496 10.8884 10.7461 10.9339 10.666C10.9815 10.584 11.0911 10.5508 11.1759 10.5957C11.453 10.7344 11.7239 10.8047 11.9928 10.8066C12.2595 10.8066 12.5284 10.7383 12.7972 10.5977C12.8841 10.5527 12.9937 10.582 13.0413 10.6641C13.0888 10.7461 13.0578 10.8477 12.971 10.8945C12.6483 11.0625 12.3237 11.1465 11.9948 11.1426C11.6639 11.1406 11.3351 11.0586 11.0084 10.8945ZM7.38302 8.2793V6.75391C7.30857 6.45898 7.21965 6.44531 7.06661 6.41797C6.65093 6.35742 6.6592 8.13281 7.38302 8.2793Z"/>
</mask>
<path fill-rule="evenodd" clip-rule="evenodd" d="M16.619 8.2793V6.75391C16.6935 6.45898 16.7969 6.42969 16.952 6.40234C17.3698 6.3418 17.3222 8.17969 16.619 8.2793ZM17.1216 18.2617C17.1195 18.2461 17.1174 18.2305 17.1174 18.2109C17.1174 18.1953 17.1195 18.1777 17.1216 18.1621V17.084C16.1785 17.0117 15.2024 17.0937 14.3524 17.3535C13.5562 17.5957 12.8717 17.9902 12.4271 18.5586V23.0488C13.1199 22.6797 13.8271 22.5156 14.5551 22.3066C15.3844 22.0703 16.2385 21.957 17.1216 22.0156V18.2617ZM11.6102 23.1289V18.5508C11.1821 17.9473 10.4913 17.543 9.70961 17.3027C8.82447 17.0312 7.82973 16.9707 6.96114 17.0684L6.91564 22.0371C7.86075 22.0098 8.78725 22.1055 9.65584 22.334C10.3507 22.5137 11.0084 22.7793 11.6102 23.1289ZM18.0605 23.2559C17.2084 23.0977 16.3626 22.998 15.523 22.9941C14.431 22.9883 13.3391 23.5586 12.243 23.9453C12.1748 23.9805 12.0941 24 12.0114 24C11.9287 24 11.848 23.9824 11.7777 23.9453C9.13882 23.0098 8.79965 22.7227 5.93951 23.2598C5.93951 21.709 5.99741 20.6973 6.05118 19.6816H1.24291C0.463249 19.6289 0.0661784 19.2461 0 18.5879C0.26885 17.457 0.33296 16.6973 1.07333 15.7754C1.37113 15.4043 1.73925 15.1289 2.14873 14.916C3.44334 14.2344 7.57742 14.0352 8.75209 13.0352L10.0777 16.7168C10.3486 16.8027 10.6092 16.9062 10.8553 17.0293L11.4551 15.0664L11.0125 14.6094C10.814 14.334 10.7685 14.0918 10.8801 13.8867C11.12 13.4375 11.6164 13.5215 12.0817 13.5215C12.5677 13.5215 13.1674 13.4355 13.3205 14.0078C13.3722 14.1992 13.306 14.4004 13.1654 14.6094L12.7228 15.0664L13.3205 17.0254C13.55 16.9219 13.792 16.8301 14.0443 16.7539L15.2562 13.0371C16.4308 14.0352 20.5649 14.2363 21.8575 14.918C22.2649 15.1348 22.6371 15.4082 22.9349 15.7773C23.6753 16.6992 23.7374 17.459 24.0083 18.5898C23.9421 19.25 23.545 19.6309 22.7654 19.6855H17.9902C18.0233 20.7051 18.0605 21.6914 18.0605 23.2559ZM9.27531 6.6289C9.18638 6.66211 9.09125 6.60937 9.05816 6.51758C9.02714 6.42187 9.07471 6.31836 9.16364 6.28711C9.8461 6.03711 10.3321 6.05273 11.0166 6.28711C11.1056 6.31836 11.1552 6.41992 11.1283 6.51562C11.1014 6.61133 11.0042 6.66406 10.9174 6.63476C10.8036 6.59766 10.6899 6.5625 10.5761 6.53906C10.5885 6.57617 10.5947 6.61719 10.5947 6.66015C10.5947 6.9082 10.3838 7.11133 10.117 7.11133C9.85437 7.11133 9.63929 6.9082 9.63929 6.66015C9.63929 6.59765 9.6517 6.54101 9.67445 6.48828C9.47385 6.50781 9.47798 6.55469 9.27531 6.6289ZM13.184 6.6289C13.095 6.66211 12.9999 6.60937 12.9668 6.51758C12.9358 6.42187 12.9834 6.31836 13.0723 6.28711C13.7527 6.03711 14.2408 6.05273 14.9253 6.28711C15.0142 6.31836 15.0639 6.41992 15.037 6.51562C15.0101 6.61133 14.9129 6.66406 14.826 6.63476C14.7123 6.59766 14.5985 6.5625 14.4848 6.53906C14.4972 6.57617 14.5034 6.61719 14.5034 6.66015C14.5034 6.9082 14.2904 7.11133 14.0257 7.11133C13.763 7.11133 13.55 6.9082 13.55 6.66015C13.55 6.59765 13.5624 6.54101 13.5852 6.48828C13.3804 6.50781 13.3866 6.55469 13.184 6.6289ZM11.4695 8.65039C11.3889 8.58594 11.3765 8.4707 11.4447 8.39453C11.513 8.31836 11.635 8.30664 11.7156 8.37109C11.8128 8.44922 11.9059 8.48828 11.9928 8.48828C12.0817 8.49023 12.1789 8.45117 12.2823 8.36914C12.3629 8.30469 12.485 8.31836 12.5532 8.39453C12.6215 8.4707 12.609 8.58594 12.5263 8.65039C12.3505 8.78711 12.1685 8.85351 11.9886 8.84961C11.8066 8.84766 11.635 8.7793 11.4695 8.65039ZM13.4611 10.0273C13.3039 10.0781 13.1405 10.1211 12.973 10.1562C12.7993 10.2012 12.6421 10.2285 12.5015 10.2324C12.3402 10.2344 12.2016 10.207 12.092 10.1387C12.0589 10.1172 12.0279 10.0957 12.001 10.0703C11.9741 10.0937 11.9452 10.1172 11.91 10.1387C11.8004 10.209 11.6619 10.2363 11.5006 10.2324C11.3599 10.2285 11.2007 10.2031 11.029 10.1562C10.8615 10.1211 10.6981 10.0781 10.5389 10.0273C10.3817 9.97656 10.2266 9.91797 10.0777 9.85156C10.0053 9.82031 9.97639 9.74414 10.0136 9.67969C10.0364 9.64258 10.0757 9.61719 10.1191 9.61133C10.1997 9.59961 10.2639 9.5918 10.3238 9.58398L10.328 9.58203C10.5224 9.55664 10.6692 9.53711 10.8512 9.46875C10.9029 9.44922 10.9525 9.42773 11.0022 9.40625C11.2917 9.2793 11.6081 9.14258 11.9245 9.37891C11.9514 9.40039 11.9762 9.41992 11.999 9.44336C12.0217 9.41992 12.0465 9.40039 12.0734 9.37891C12.3878 9.14062 12.7062 9.2793 12.9958 9.40625C13.0454 9.42773 13.095 9.44922 13.1467 9.46875C13.3287 9.53711 13.4776 9.55664 13.67 9.58203L13.6762 9.58398C13.7361 9.5918 13.8003 9.59961 13.8809 9.61133C13.9243 9.61914 13.9657 9.64258 13.9864 9.67969C14.0236 9.74219 13.9947 9.82031 13.9223 9.85156C13.7734 9.91797 13.6183 9.97656 13.4611 10.0273ZM6.42551 3.54883V2.875C6.57441 1.70703 7.14933 1.23828 8.09651 1.37305C8.99405 0.486327 10.2639 -0.00976694 12.0134 0.00195181C13.9595 -0.0351576 15.6202 0.39453 16.8238 1.56055C17.4566 2.15625 17.7275 2.77734 17.5642 4.08984C17.5972 5.37695 17.7482 5.48242 17.3056 5.70898C17.3036 5.74414 17.3015 5.7793 17.2994 5.81641L16.9954 5.99805C17.2415 5.98047 17.4132 6.125 17.5166 6.37109C17.5662 6.49414 17.5993 6.64453 17.6138 6.80859C17.6262 6.96094 17.6241 7.13086 17.6014 7.30273C17.529 7.92773 17.225 8.58008 16.6625 8.65625C16.6377 8.66016 16.6128 8.66016 16.5901 8.6582V8.73828C16.5901 8.74219 16.5901 8.74609 16.5901 8.75C16.6273 9.62304 16.1392 10.5918 15.3513 11.3672C13.9181 12.7793 11.5647 13.4824 9.51934 11.8828C9.16364 11.6035 8.75002 11.3301 8.42533 10.8984C8.42947 10.8945 8.43361 10.8906 8.43567 10.8887L8.4274 10.8828C7.90004 10.4199 7.65187 10.2012 7.44093 9.25C7.43679 9.23242 7.43473 9.21094 7.43473 9.19336V8.6582C7.40577 8.66406 7.37475 8.66406 7.34373 8.6582C6.77915 8.58008 6.47721 7.92773 6.40483 7.30469C6.38621 7.13281 6.38208 6.96289 6.39242 6.81055C6.40689 6.64648 6.43998 6.49609 6.48962 6.37305C6.60129 6.10547 6.79569 5.95703 7.07488 6.00781C7.20931 6.03125 7.33339 6.0957 7.43473 6.20703V5.99023L7.20724 5.86914C7.18035 5.69336 7.17622 5.51562 7.18862 5.33398C6.77708 4.68359 6.45653 4.05078 6.42551 3.54883ZM15.9821 5.72265C15.7132 5.00976 15.3575 4.92969 14.7081 4.55469C14.1642 4.33203 13.6865 4.14258 13.2336 4.00781C12.1355 3.77734 10.9298 3.84375 9.93089 4.1582C9.66618 4.25586 9.38285 4.375 9.08091 4.51758C8.44395 4.86914 8.14821 4.9043 8.01379 5.50391V9.18945C8.24127 10.2168 8.22473 10.0254 8.92167 10.6699L10.1315 11.7871C10.3507 11.957 10.5968 12.0566 10.8574 12.1152C11.7529 12.3145 13.6327 12.2344 14.338 11.5332C15.3885 10.5684 16.0503 10.2773 15.9759 8.73437V5.72265H15.9821ZM11.0084 10.8945C10.9215 10.8496 10.8884 10.7461 10.9339 10.666C10.9815 10.584 11.0911 10.5508 11.1759 10.5957C11.453 10.7344 11.7239 10.8047 11.9928 10.8066C12.2595 10.8066 12.5284 10.7383 12.7972 10.5977C12.8841 10.5527 12.9937 10.582 13.0413 10.6641C13.0888 10.7461 13.0578 10.8477 12.971 10.8945C12.6483 11.0625 12.3237 11.1465 11.9948 11.1426C11.6639 11.1406 11.3351 11.0586 11.0084 10.8945ZM7.38302 8.2793V6.75391C7.30857 6.45898 7.21965 6.44531 7.06661 6.41797C6.65093 6.35742 6.6592 8.13281 7.38302 8.2793Z" fill="white" stroke="white" stroke-width="2" mask="url(#path-1-inside-1_1019_2961)"/>
</svg>
